<?xml version="1.0" encoding="utf-8"?>
<!-- Generator: Adobe Illustrator 23.0.3, SVG Export Plug-In . SVG Version: 6.00 Build 0)  -->
<svg version="1.1" id="Layer_1" xmlns="http://www.w3.org/2000/svg" xmlns:xlink="http://www.w3.org/1999/xlink" x="0px" y="0px"
	 viewBox="0 0 970 250" style="enable-background:new 0 0 970 250;" xml:space="preserve">
<style type="text/css">
	.st0{fill:#F8E44C;}
	.st1{clip-path:url(#SVGID_2_);fill:#1C1D1C;}
	.st2{clip-path:url(#SVGID_4_);fill:#1C1D1C;}
	.st3{clip-path:url(#SVGID_6_);fill:#1C1D1C;}
	.st4{clip-path:url(#SVGID_8_);fill:#1C1D1C;}
	.st5{clip-path:url(#SVGID_10_);fill:#1C1D1C;}
	.st6{clip-path:url(#SVGID_12_);fill:#1C1D1C;}
	.st7{clip-path:url(#SVGID_14_);fill:#1C1D1C;}
	.st8{clip-path:url(#SVGID_16_);fill:#1C1D1C;}
	.st9{clip-path:url(#SVGID_18_);fill:#1C1D1C;}
	.st10{clip-path:url(#SVGID_20_);fill:#1C1D1C;}
	.st11{clip-path:url(#SVGID_22_);fill:#1C1D1C;}
	.st12{clip-path:url(#SVGID_24_);fill:#1C1D1C;}
	.st13{clip-path:url(#SVGID_26_);fill:#1C1D1C;}
	.st14{clip-path:url(#SVGID_28_);fill:#1C1D1C;}
	.st15{clip-path:url(#SVGID_30_);fill:#1C1D1C;}
	.st16{clip-path:url(#SVGID_32_);fill:#1C1D1C;}
	.st17{clip-path:url(#SVGID_34_);fill:#1C1D1C;}
	.st18{clip-path:url(#SVGID_36_);fill:#1C1D1C;}
	.st19{clip-path:url(#SVGID_38_);fill:#1C1D1C;}
	.st20{clip-path:url(#SVGID_40_);fill:#1C1D1C;}
	.st21{clip-path:url(#SVGID_42_);fill:#1C1D1C;}
	.st22{clip-path:url(#SVGID_44_);fill:#1C1D1C;}
	.st23{clip-path:url(#SVGID_46_);fill:#1C1D1C;}
	.st24{fill:#1C1D1C;}
	.st25{fill:none;}
</style>
<rect y="0" class="st0" width="970" height="250"/>
<g>
	<g>
		<g>
			<defs>
				<rect id="SVGID_1_" x="-22.9" y="-95" width="447.3" height="478"/>
			</defs>
			<clipPath id="SVGID_2_">
				<use xlink:href="#SVGID_1_"  style="overflow:visible;"/>
			</clipPath>
			<path class="st1" d="M186.9,60.6c-0.2,0-0.3,0-0.5,0c-1.7,0.2-4.7,2.4-5.9,3.3c-1.6,1.2-2.2,2.6-4,3.6c-2.2,1.3-4.1,1-6.2,2.4
				c-6,4-7.7,8.3-11,14.5c-5.5,10.3-9.5,21.8-11.7,33.3c-1.4,7.5-1.1,11.8-0.6,19c0.2,2.5,0.4,5.1,0.7,7.6c0.2,1.2,0.3,2.4,0.5,3.6
				c0.2,1.2,0.8,2.3,1.2,3.4c1,2.6,1.2,5.4,1.9,8.1c0.6,2.6,1.4,5.2,2.9,7.4c2.2,3.4,5.8,6.7,9.4,9.6c5.7,4.7,10.7,9.4,18.5,9.2
				c0.2,0,0.5,0,0.7,0c5.5-0.4,6.5-1.1,8.6-5.5c1.5-3,3.1-6.2,3.6-9.5c0.4-2.3,0.6-4.5,0.7-6.8c0-1.9,0-3.9,0-5.8
				c0.1-4.7,0.1-10.1-0.7-14.7c-0.5-3.3-1.4-6.1-1.3-9.5c0.1-2.6,1-4.9,1.2-7.6c0.7-7.5-0.2-16.1-0.8-23.7c-0.2-2.8-0.5-5.5-0.7-8.3
				c-0.1-1.4-0.2-2.8-0.2-4.2c0-1.4,0.6-2.7,0.8-4.1c0.3-1.4-0.1-2.7-0.2-4.1c-0.1-0.5-0.2-1-0.1-1.5c0.1-0.5,0.2-1,0.2-1.5
				c-0.2-1.9-0.8-3.7-1-5.6c-0.2-1.6-0.1-3.3-0.1-5C193.2,64.4,191.4,60.4,186.9,60.6 M187,61.8c1.3,0,2.4,0.3,3.2,1.1
				c1.1,1.1,1.8,3.1,1.7,5.4c0,0.3,0,0.6,0,0.8c0,1.4-0.1,2.9,0.1,4.4c0.1,0.9,0.3,1.8,0.5,2.7c0.2,1,0.4,1.9,0.5,2.8
				c0,0.2,0,0.4-0.1,0.7c0,0.2-0.1,0.4-0.1,0.6c-0.1,0.5,0,1,0.1,1.4c0,0.1,0,0.2,0,0.4c0,0.4,0.1,0.7,0.1,1.1
				c0.1,0.9,0.3,1.7,0.1,2.6c-0.1,0.4-0.2,0.8-0.3,1.3c-0.3,1-0.5,1.9-0.5,3s0,2.2,0.1,3.3c0,0.3,0,0.7,0.1,1
				c0.1,1.8,0.3,3.6,0.4,5.4c0.1,1,0.2,2,0.3,3c0.1,0.8,0.1,1.6,0.2,2.4c0.6,6.8,1.2,14.4,0.6,21c-0.1,1.2-0.3,2.3-0.6,3.4
				c-0.3,1.3-0.6,2.7-0.7,4.3c-0.1,2.6,0.3,4.9,0.8,7.2c0.2,0.9,0.3,1.7,0.5,2.6c0.6,3.8,0.8,8.5,0.6,14.5c0,1.1,0,2.1,0,3.2
				c0,0.9,0,1.8,0,2.6c0,2-0.2,4-0.7,6.6c-0.5,3-1.9,6-3.4,9l-0.1,0.2c-1.9,3.9-2.3,4.4-7.6,4.8c-0.2,0-0.4,0-0.7,0
				c-6.7,0.2-11.1-3.4-16.2-7.7c-0.5-0.4-1-0.8-1.5-1.2c-3.1-2.5-6.9-5.9-9.1-9.3c-1.4-2.2-2.1-4.7-2.7-7.1
				c-0.2-0.9-0.4-1.9-0.6-2.8c-0.3-1.8-0.7-3.6-1.4-5.4c-0.1-0.3-0.3-0.7-0.4-1c-0.3-0.7-0.6-1.5-0.7-2.2c-0.2-0.9-0.3-1.9-0.4-2.8
				l-0.1-0.7c-0.3-2.6-0.6-5.3-0.7-7.5c-0.5-7-0.8-11.3,0.6-18.7c2.1-11.3,6.1-22.7,11.6-33c0.4-0.8,0.8-1.6,1.2-2.3
				c2.6-4.9,4.4-8.5,9.3-11.8c0.9-0.6,1.8-0.9,2.9-1.1c1-0.3,2.1-0.5,3.3-1.2s1.9-1.5,2.6-2.3c0.5-0.5,0.9-1,1.5-1.5
				c2.8-2.2,4.6-3,5.3-3.1C186.7,61.8,186.8,61.8,187,61.8"/>
		</g>
		<g>
			<defs>
				<rect id="SVGID_3_" x="-22.9" y="-95" width="447.3" height="478"/>
			</defs>
			<clipPath id="SVGID_4_">
				<use xlink:href="#SVGID_3_"  style="overflow:visible;"/>
			</clipPath>
			<path class="st2" d="M202.6,61.3c-6,0.2-4.2,9-4.3,12.3c-0.3,6.8-1.7,13.7-1.5,20.5c0.2,5.3,0.6,10.5,0.9,15.8
				c0.2,2.7,0.3,5.3,0.4,8c0.1,2.5,0.3,4.9-0.2,7.3c-1.1,5.4-2.2,11-2,16.5c0.1,2.9,0.6,5.4,1.3,8.2c0.3,1.4,0.7,2.9,0.6,4.4
				c-0.2,1.8-0.9,3.5-1.3,5.3c-0.5,2.4-0.1,4.7-0.1,7.1c0,4.7-0.3,9.8,0.2,14.3c0.5,4.8,3,6.3,6.2,6.2c3.4-0.1,7.5-2.1,10.4-4.1
				c2.7-1.8,5.7-3.2,8.2-5.2c2.4-2,3.4-4.2,5.3-6.6c1.4-1.7,2.7-3.5,4-5.2c0.7-1,1.5-1.9,2.2-2.9c0.3-0.4,0.6-0.8,0.9-1.1
				c0.6-0.6,0.9-1.3,1.2-2.1c1.6-4.4,4.3-8.3,6-12.5c0.2-0.4,0.3-0.7,0.4-1.1c1.9-5,1.9-9.1,2.3-14c0.2-2,1.5-4.6,0.6-7
				c-2.5-3.9-2.3-11.1-3.5-15.4c-1.2-4.2-0.7-10.4-2.5-14.2c-0.7-1.6-2.3-3-3.2-4.7c-0.5-0.9-0.5-2.7-1.1-3.5
				c-0.1-0.2-1.7-1.3-1.7-1.5c-0.3-3-3-7.8-5.2-9.5c-0.3-0.2-0.7-0.3-1.2-0.3c-0.7,0-1.5,0.2-2.1,0.2c-0.3,0-0.5,0-0.6-0.1
				c-2.6-1.8-2.4-5.4-6.4-7.3c-3.7-1.7-4-2-6.8-4.1c-1.1-0.8-4.2-3.3-5.8-3.6C203.5,61.3,203,61.3,202.6,61.3 M202.6,62.5
				L202.6,62.5c0.4,0,0.8,0,1.3,0.1c1.2,0.2,4.1,2.4,5,3.1l0.3,0.2l0.2,0.2c2.7,2,3.1,2.3,6.8,4.1c1.9,0.9,2.7,2.3,3.5,3.8
				c0.7,1.2,1.4,2.5,2.7,3.4c0.5,0.3,1,0.4,1.4,0.3c0.3,0,0.7-0.1,1.1-0.1c0.3-0.1,0.7-0.1,1-0.1s0.4,0,0.4,0l0,0
				c2,1.5,4.5,6,4.7,8.7c0.1,0.7,0.5,1,1.5,1.8c0.1,0.1,0.3,0.3,0.4,0.4c0.2,0.3,0.3,0.9,0.4,1.4c0.1,0.7,0.3,1.3,0.6,1.9
				c0.5,0.9,1.1,1.7,1.7,2.5c0.6,0.7,1.1,1.4,1.5,2.2c0.9,2,1.2,4.9,1.5,7.7c0.2,2.2,0.4,4.5,1,6.4c0.4,1.5,0.7,3.4,1,5.4
				c0.5,3.7,1,7.5,2.7,10.2c0.4,1.3,0.1,2.7-0.3,4.1c-0.2,0.8-0.4,1.5-0.4,2.3c-0.1,0.7-0.1,1.4-0.2,2.1c-0.3,4-0.5,7.5-2.1,11.6
				c-0.1,0.3-0.3,0.7-0.4,1c-0.8,1.9-1.8,3.8-2.8,5.6c-1.2,2.2-2.4,4.5-3.3,7c-0.3,0.8-0.5,1.2-0.9,1.7c-0.2,0.3-0.4,0.5-0.6,0.8
				c-0.1,0.1-0.2,0.2-0.3,0.4c-0.8,0.9-1.5,1.9-2.2,2.9c-0.6,0.8-1.3,1.6-1.9,2.4c-0.7,0.9-1.4,1.8-2.2,2.8
				c-0.6,0.8-1.2,1.6-1.7,2.4c-1,1.5-1.9,2.9-3.4,4.1c-1.5,1.2-3.1,2.1-4.8,3.2c-1.1,0.6-2.2,1.3-3.2,2c-3.5,2.3-7.2,3.8-9.8,3.9
				c-1.9,0.1-4.4-0.4-4.9-5.1c-0.3-3.2-0.3-6.7-0.2-10.1c0-1.3,0-2.7,0-4c0-0.8,0-1.6-0.1-2.3c-0.1-1.6-0.2-3.1,0.1-4.5
				c0.1-0.6,0.3-1.3,0.5-2c0.3-1.1,0.7-2.3,0.8-3.5c0.2-1.6-0.2-3.1-0.5-4.5l-0.1-0.3c-0.7-3-1.1-5.4-1.2-8
				c-0.2-5.3,0.8-10.5,2-16.2c0.5-2.3,0.4-4.5,0.3-6.7c0-0.3,0-0.6,0-0.9c-0.1-2.9-0.3-5.8-0.4-8c-0.1-1.3-0.2-2.5-0.2-3.8
				c-0.3-3.9-0.5-8-0.7-11.9c-0.1-4,0.3-8.1,0.8-12c0.3-2.8,0.6-5.6,0.7-8.4c0-0.7,0-1.5-0.1-2.4c-0.1-2.7-0.3-6.3,1.1-7.9
				C201.1,62.8,201.7,62.5,202.6,62.5"/>
		</g>
		<g>
			<defs>
				<rect id="SVGID_5_" x="-22.9" y="-95" width="447.3" height="478"/>
			</defs>
			<clipPath id="SVGID_6_">
				<use xlink:href="#SVGID_5_"  style="overflow:visible;"/>
			</clipPath>
			<path class="st3" d="M173.7,84.4c0,0.9-0.6,1.6-1.5,1.6s-1.6-0.6-1.6-1.5s0.6-1.6,1.5-1.6C172.9,82.8,173.6,83.5,173.7,84.4"/>
		</g>
		<g>
			<defs>
				<rect id="SVGID_7_" x="-22.9" y="-95" width="447.3" height="478"/>
			</defs>
			<clipPath id="SVGID_8_">
				<use xlink:href="#SVGID_7_"  style="overflow:visible;"/>
			</clipPath>
			<path class="st4" d="M188.2,97.9c0,0.9-0.6,1.6-1.5,1.6s-1.6-0.6-1.6-1.5s0.6-1.6,1.5-1.6C187.4,96.4,188.1,97.1,188.2,97.9"/>
		</g>
		<g>
			<defs>
				<rect id="SVGID_9_" x="-22.9" y="-95" width="447.3" height="478"/>
			</defs>
			<clipPath id="SVGID_10_">
				<use xlink:href="#SVGID_9_"  style="overflow:visible;"/>
			</clipPath>
			<path class="st5" d="M211.9,89.8c0,0.5-0.4,0.9-0.8,0.9c-0.5,0-0.9-0.4-0.9-0.8c0-0.5,0.4-0.9,0.8-0.9
				C211.5,88.9,211.9,89.3,211.9,89.8"/>
		</g>
		<g>
			<defs>
				<rect id="SVGID_11_" x="-22.9" y="-95" width="447.3" height="478"/>
			</defs>
			<clipPath id="SVGID_12_">
				<use xlink:href="#SVGID_11_"  style="overflow:visible;"/>
			</clipPath>
			<path class="st6" d="M232.4,112.4c0,0.5-0.4,0.9-0.8,0.9c-0.5,0-0.9-0.4-0.9-0.8c0-0.5,0.4-0.9,0.8-0.9
				C232,111.6,232.4,112,232.4,112.4"/>
		</g>
		<g>
			<defs>
				<rect id="SVGID_13_" x="-22.9" y="-95" width="447.3" height="478"/>
			</defs>
			<clipPath id="SVGID_14_">
				<use xlink:href="#SVGID_13_"  style="overflow:visible;"/>
			</clipPath>
			<path class="st7" d="M181.8,124.1c0,0.9-0.6,1.6-1.5,1.6s-1.6-0.6-1.6-1.5s0.6-1.6,1.5-1.6C181.1,122.6,181.8,123.2,181.8,124.1"
				/>
		</g>
		<g>
			<defs>
				<rect id="SVGID_15_" x="-22.9" y="-95" width="447.3" height="478"/>
			</defs>
			<clipPath id="SVGID_16_">
				<use xlink:href="#SVGID_15_"  style="overflow:visible;"/>
			</clipPath>
			<path class="st8" d="M234.5,130.6c0,0.9-0.6,1.6-1.5,1.6s-1.6-0.6-1.6-1.5s0.6-1.6,1.5-1.6C233.8,129,234.5,129.7,234.5,130.6"/>
		</g>
		<g>
			<defs>
				<rect id="SVGID_17_" x="-22.9" y="-95" width="447.3" height="478"/>
			</defs>
			<clipPath id="SVGID_18_">
				<use xlink:href="#SVGID_17_"  style="overflow:visible;"/>
			</clipPath>
			<path class="st9" d="M159.5,112.5c0,0.9-0.6,1.6-1.5,1.6s-1.6-0.6-1.6-1.5s0.6-1.6,1.5-1.6C158.8,111,159.5,111.6,159.5,112.5"/>
		</g>
		<g>
			<defs>
				<rect id="SVGID_19_" x="-22.9" y="-95" width="447.3" height="478"/>
			</defs>
			<clipPath id="SVGID_20_">
				<use xlink:href="#SVGID_19_"  style="overflow:visible;"/>
			</clipPath>
			<path class="st10" d="M163.8,149c0,0.9-0.6,1.6-1.5,1.6s-1.6-0.6-1.6-1.5s0.6-1.6,1.5-1.6C163.1,147.5,163.8,148.1,163.8,149"/>
		</g>
		<g>
			<defs>
				<rect id="SVGID_21_" x="-22.9" y="-95" width="447.3" height="478"/>
			</defs>
			<clipPath id="SVGID_22_">
				<use xlink:href="#SVGID_21_"  style="overflow:visible;"/>
			</clipPath>
			<path class="st11" d="M187.3,164.8c0,0.9-0.6,1.6-1.5,1.6s-1.6-0.6-1.6-1.5s0.6-1.6,1.5-1.6C186.5,163.2,187.2,163.9,187.3,164.8
				"/>
		</g>
		<g>
			<defs>
				<rect id="SVGID_23_" x="-22.9" y="-95" width="447.3" height="478"/>
			</defs>
			<clipPath id="SVGID_24_">
				<use xlink:href="#SVGID_23_"  style="overflow:visible;"/>
			</clipPath>
			<path class="st12" d="M221.3,152.5c0-0.9,0.6-1.6,1.5-1.6s1.6,0.6,1.6,1.5s-0.6,1.6-1.5,1.6C222.1,154,221.4,153.3,221.3,152.5"
				/>
		</g>
		<g>
			<defs>
				<rect id="SVGID_25_" x="-22.9" y="-95" width="447.3" height="478"/>
			</defs>
			<clipPath id="SVGID_26_">
				<use xlink:href="#SVGID_25_"  style="overflow:visible;"/>
			</clipPath>
			<path class="st13" d="M206.8,138.9c0-0.9,0.6-1.6,1.5-1.6s1.6,0.6,1.6,1.5s-0.6,1.6-1.5,1.6C207.6,140.4,206.9,139.7,206.8,138.9
				"/>
		</g>
		<g>
			<defs>
				<rect id="SVGID_27_" x="-22.9" y="-95" width="447.3" height="478"/>
			</defs>
			<clipPath id="SVGID_28_">
				<use xlink:href="#SVGID_27_"  style="overflow:visible;"/>
			</clipPath>
			<path class="st14" d="M213.2,112.7c0-0.9,0.6-1.6,1.5-1.6s1.6,0.6,1.6,1.5s-0.6,1.6-1.5,1.6C213.9,114.2,213.2,113.6,213.2,112.7
				"/>
		</g>
		<g>
			<defs>
				<rect id="SVGID_29_" x="-22.9" y="-95" width="447.3" height="478"/>
			</defs>
			<clipPath id="SVGID_30_">
				<use xlink:href="#SVGID_29_"  style="overflow:visible;"/>
			</clipPath>
			<path class="st15" d="M207.8,72c0-0.9,0.6-1.6,1.5-1.6s1.6,0.6,1.6,1.5s-0.6,1.6-1.5,1.6C208.5,73.6,207.8,72.9,207.8,72"/>
		</g>
		<g>
			<defs>
				<rect id="SVGID_31_" x="-22.9" y="-95" width="447.3" height="478"/>
			</defs>
			<clipPath id="SVGID_32_">
				<use xlink:href="#SVGID_31_"  style="overflow:visible;"/>
			</clipPath>
			<path class="st16" d="M227.2,95.1c0,0.5-0.4,0.9-0.8,0.9c-0.5,0-0.9-0.4-0.9-0.8c0-0.5,0.4-0.9,0.8-0.9
				C226.8,94.3,227.2,94.6,227.2,95.1"/>
		</g>
		<g>
			<defs>
				<rect id="SVGID_33_" x="-22.9" y="-95" width="447.3" height="478"/>
			</defs>
			<clipPath id="SVGID_34_">
				<use xlink:href="#SVGID_33_"  style="overflow:visible;"/>
			</clipPath>
			<path class="st17" d="M208.8,173.9c0,0.5-0.4,0.9-0.8,0.9c-0.5,0-0.9-0.4-0.9-0.8c0-0.5,0.4-0.9,0.8-0.9
				C208.4,173,208.8,173.4,208.8,173.9"/>
		</g>
		<g>
			<defs>
				<rect id="SVGID_35_" x="-22.9" y="-95" width="447.3" height="478"/>
			</defs>
			<clipPath id="SVGID_36_">
				<use xlink:href="#SVGID_35_"  style="overflow:visible;"/>
			</clipPath>
			<path class="st18" d="M184.2,145.9c0,0.5-0.4,0.9-0.8,0.9c-0.5,0-0.9-0.4-0.9-0.8c0-0.5,0.4-0.9,0.8-0.9
				C183.8,145.1,184.2,145.4,184.2,145.9"/>
		</g>
		<g>
			<defs>
				<rect id="SVGID_37_" x="-22.9" y="-95" width="447.3" height="478"/>
			</defs>
			<clipPath id="SVGID_38_">
				<use xlink:href="#SVGID_37_"  style="overflow:visible;"/>
			</clipPath>
			<path class="st19" d="M192.8,131.9c0,0.5-0.4,0.9-0.8,0.9c-0.5,0-0.9-0.4-0.9-0.8c0-0.5,0.4-0.9,0.8-0.9
				C192.4,131,192.8,131.4,192.8,131.9"/>
		</g>
		<g>
			<defs>
				<rect id="SVGID_39_" x="-22.9" y="-95" width="447.3" height="478"/>
			</defs>
			<clipPath id="SVGID_40_">
				<use xlink:href="#SVGID_39_"  style="overflow:visible;"/>
			</clipPath>
			<path class="st20" d="M165.2,127.5c0,0.5-0.4,0.9-0.8,0.9c-0.5,0-0.9-0.4-0.9-0.8c0-0.5,0.4-0.9,0.8-0.9
				C164.7,126.7,165.1,127.1,165.2,127.5"/>
		</g>
		<g>
			<defs>
				<rect id="SVGID_41_" x="-22.9" y="-95" width="447.3" height="478"/>
			</defs>
			<clipPath id="SVGID_42_">
				<use xlink:href="#SVGID_41_"  style="overflow:visible;"/>
			</clipPath>
			<path class="st21" d="M186.1,76.5c0,0.5-0.4,0.9-0.8,0.9c-0.5,0-0.9-0.4-0.9-0.8c0-0.5,0.4-0.9,0.8-0.9
				C185.7,75.6,186.1,76,186.1,76.5"/>
		</g>
		<g>
			<defs>
				<rect id="SVGID_43_" x="-22.9" y="-95" width="447.3" height="478"/>
			</defs>
			<clipPath id="SVGID_44_">
				<use xlink:href="#SVGID_43_"  style="overflow:visible;"/>
			</clipPath>
			<path class="st22" d="M174.3,104.5c0,0.5-0.4,0.9-0.8,0.9c-0.5,0-0.9-0.4-0.9-0.8c0-0.5,0.4-0.9,0.8-0.9S174.3,104,174.3,104.5"
				/>
		</g>
		<g>
			<defs>
				<rect id="SVGID_45_" x="-22.9" y="-95" width="447.3" height="478"/>
			</defs>
			<clipPath id="SVGID_46_">
				<use xlink:href="#SVGID_45_"  style="overflow:visible;"/>
			</clipPath>
			<path class="st23" d="M170.2,167.8c0,0.5-0.4,0.9-0.8,0.9c-0.5,0-0.9-0.4-0.9-0.8c0-0.5,0.4-0.9,0.8-0.9
				C169.8,166.9,170.2,167.3,170.2,167.8"/>
		</g>
	</g>
	
		<rect x="185.8" y="76.5" transform="matrix(0.9979 -6.509285e-02 6.509285e-02 0.9979 -5.2853 12.286)" class="st24" width="0.2" height="21.5"/>
	<polygon class="st24" points="172.1,84.5 172.1,84.3 185.2,76.5 185.3,76.6 	"/>
	
		<rect x="181" y="65.9" transform="matrix(0.7269 -0.6868 0.6868 0.7269 -1.879663e-02 144.0491)" class="st24" width="0.2" height="12.2"/>
	
		<rect x="165.8" y="75.9" transform="matrix(0.2723 -0.9622 0.9622 0.2723 53.8574 223.2816)" class="st24" width="17.4" height="0.2"/>
	
		<rect x="179.3" y="81.3" transform="matrix(0.6836 -0.7299 0.7299 0.6836 -9.7924 159.8208)" class="st24" width="0.2" height="19.9"/>
	
		<rect x="159.1" y="84.9" transform="matrix(0.9966 -8.284814e-02 8.284814e-02 0.9966 -6.4731 14.0128)" class="st24" width="13" height="0.2"/>
	
		<rect x="172.7" y="101.2" transform="matrix(0.895 -0.4461 0.4461 0.895 -26.2809 90.9639)" class="st24" width="14.7" height="0.2"/>
	<polygon class="st24" points="186.7,98.1 186.6,97.9 193.6,95.3 193.6,95.4 	"/>
	
		<rect x="189.3" y="75.6" transform="matrix(0.9139 -0.4059 0.4059 0.9139 -18.5636 84.2658)" class="st24" width="0.2" height="20.6"/>
	<polygon class="st24" points="194.6,113.4 186.6,98 186.7,98 194.7,113.3 	"/>
	<polygon class="st24" points="173.4,104.6 172,84.4 172.2,84.4 173.5,104.5 	"/>
	<polygon class="st24" points="180.2,124.2 173.4,104.6 173.5,104.5 180.3,124.1 	"/>
	<polygon class="st24" points="158,112.6 158,112.5 173.4,104.5 173.5,104.6 	"/>
	<polygon class="st24" points="180.2,124.2 158,112.6 158,112.5 180.3,124.1 	"/>
	<polygon class="st24" points="180.3,124.2 180.2,124.1 186.5,98 186.7,98 	"/>
	<rect x="186" y="121" transform="matrix(0.5526 -0.8334 0.8334 0.5526 -23.4406 212.338)" class="st24" width="0.2" height="14"/>
	<polygon class="st24" points="164.3,127.6 164.3,127.5 180.2,124.1 180.3,124.2 	"/>
	<rect x="178.1" y="115.7" transform="matrix(0.1546 -0.988 0.988 0.1546 22.447 285.7213)" class="st24" width="0.2" height="28"/>
	
		<rect x="181.7" y="124" transform="matrix(0.9899 -0.1421 0.1421 0.9899 -17.3401 27.2024)" class="st24" width="0.2" height="22"/>
	
		<rect x="179.4" y="138.9" transform="matrix(0.5192 -0.8546 0.8546 0.5192 -28.5626 227.1373)" class="st24" width="16.4" height="0.2"/>
	
		<rect x="173.8" y="123.5" transform="matrix(0.6935 -0.7205 0.7205 0.6935 -45.1988 167.1862)" class="st24" width="0.2" height="26.5"/>
	<polygon class="st24" points="162.4,149.1 162.2,149 164.2,127.6 164.4,127.6 	"/>
	
		<rect x="161.1" y="111.9" transform="matrix(0.9219 -0.3874 0.3874 0.9219 -33.9138 71.8183)" class="st24" width="0.2" height="16.3"/>
	
		<rect x="162.2" y="147.4" transform="matrix(0.9893 -0.1456 0.1456 0.9893 -19.6343 26.7386)" class="st24" width="21.3" height="0.2"/>
	<polygon class="st24" points="169.3,167.8 162.2,149.1 162.4,149 169.4,167.8 	"/>
	<polygon class="st24" points="169.4,167.9 169.3,167.7 185.7,164.8 185.7,164.9 	"/>
	<polygon class="st24" points="169.4,167.8 169.3,167.7 183.3,145.9 183.4,146 	"/>
	
		<rect x="172.1" y="148.3" transform="matrix(0.1864 -0.9825 0.9825 0.1864 7.8208 306.2878)" class="st24" width="33.5" height="0.2"/>
	<polygon class="st24" points="185.6,164.8 183.3,146 183.5,145.9 185.8,164.8 	"/>
	<polygon class="st24" points="210.9,89.8 209.2,72 209.4,72 211.1,89.8 	"/>
	<polygon class="st24" points="226.3,95.2 209.3,72 209.4,71.9 226.4,95.1 	"/>
	
		<rect x="218.6" y="84.4" transform="matrix(0.3293 -0.9442 0.9442 0.3293 59.377 268.5401)" class="st24" width="0.2" height="16.2"/>
	<polygon class="st24" points="214.7,112.7 210.9,89.8 211.1,89.8 214.8,112.7 	"/>
	<polygon class="st24" points="231.5,112.5 226.3,95.2 226.4,95.1 231.6,112.4 	"/>
	
		<rect x="210" y="103.8" transform="matrix(0.5519 -0.8339 0.8339 0.5519 12.1365 230.4662)" class="st24" width="21" height="0.2"/>
	
		<rect x="214.8" y="112.5" transform="matrix(0.9999 -1.173665e-02 1.173665e-02 0.9999 -1.3061 2.6273)" class="st24" width="16.8" height="0.2"/>
	
		<rect x="221.2" y="85.8" transform="matrix(0.7414 -0.6711 0.6711 0.7414 -10.6151 174.6385)" class="st24" width="0.2" height="30.6"/>
	
		<rect x="232.2" y="112.4" transform="matrix(0.9968 -7.979041e-02 7.979041e-02 0.9968 -8.9536 18.9222)" class="st24" width="0.2" height="18.2"/>
	<polygon class="st24" points="232.9,130.7 214.7,112.7 214.8,112.6 233,130.6 	"/>
	<polygon class="st24" points="208.4,138.9 208.3,138.8 231.5,112.4 231.6,112.5 	"/>
	<polygon class="st24" points="208.5,138.8 208.3,138.8 214.7,112.6 214.8,112.7 	"/>
	<polygon class="st24" points="208.4,138.9 208.4,138.8 233,130.5 233,130.7 	"/>
	<polygon class="st24" points="223,152.4 222.8,152.4 232.9,130.6 233.1,130.7 	"/>
	
		<rect x="215.6" y="135.6" transform="matrix(0.6836 -0.7299 0.7299 0.6836 -38.0107 203.5122)" class="st24" width="0.2" height="19.9"/>
	<polygon class="st24" points="208.1,173.9 207.9,173.9 208.3,138.8 208.5,138.8 	"/>
	<polygon class="st24" points="208,174 207.9,173.9 222.8,152.4 223,152.5 	"/>
	<polygon class="st24" points="222.8,152.4 214.7,112.7 214.8,112.6 223,152.4 	"/>
	<polygon class="st24" points="209.3,72 200.1,62.7 200.2,62.6 209.4,71.9 	"/>
	<polygon class="st24" points="197.3,93.7 197.2,93.6 209.2,72 209.4,72 	"/>
	<polygon class="st24" points="197.3,93.7 197.3,93.6 211,89.7 211,89.9 	"/>
	<polygon class="st24" points="198.9,122.9 198.7,122.9 211,89.8 211.1,89.8 	"/>
	<polygon class="st24" points="198.9,123 198.8,122.8 214.7,112.6 214.8,112.7 	"/>
	<polygon class="st24" points="214.7,112.7 197.2,93.7 197.3,93.6 214.8,112.6 	"/>
	<polygon class="st24" points="226.3,95.2 222.3,76.6 222.5,76.6 226.4,95.1 	"/>
	<polygon class="st24" points="211.1,89.9 211,89.8 222.3,76.5 222.5,76.6 	"/>
	<polygon class="st24" points="231.6,112.5 231.5,112.4 239,102 239.1,102.1 	"/>
	<polygon class="st24" points="239,102.2 226.3,95.2 226.4,95.1 239.1,102 	"/>
	<polygon class="st24" points="233.1,130.6 232.9,130.6 239,102.1 239.2,102.1 	"/>
	<polygon class="st24" points="233,130.7 233,130.5 244.5,127 244.6,127.2 	"/>
	
		<rect x="236.1" y="130.1" transform="matrix(0.9467 -0.322 0.322 0.9467 -32.5516 83.5256)" class="st24" width="0.2" height="20.1"/>
	<polygon class="st24" points="222.9,152.5 222.9,152.3 239.4,149.5 239.5,149.7 	"/>
	<polygon class="st24" points="196.5,146.4 196.4,146.3 208.3,138.8 208.4,138.9 	"/>
	<polygon class="st24" points="207.9,173.9 196.4,146.4 196.5,146.3 208.1,173.9 	"/>
	
		<rect x="196.9" y="180" transform="matrix(0.5297 -0.8482 0.8482 0.5297 -56.7053 257.8811)" class="st24" width="14.5" height="0.2"/>
	<polygon class="st24" points="223.7,174.3 208,174 208,173.8 223.7,174.2 	"/>
	<polygon class="st24" points="223.6,174.3 222.8,152.4 223,152.4 223.8,174.3 	"/>
	<polygon class="st24" points="208.3,138.9 198.7,122.9 198.9,122.8 208.5,138.8 	"/>
	<polygon class="st24" points="222.4,76.7 209.3,72.1 209.3,71.9 222.4,76.5 	"/>
	<polygon class="st24" points="185.3,76.6 185.2,76.5 192.8,72.5 192.9,72.6 	"/>
	<polygon class="st24" points="158.1,112.6 157.9,112.5 159,85.5 159.2,85.5 	"/>
	
		<rect x="149.3" y="98.4" transform="matrix(0.4471 -0.8945 0.8945 0.4471 3.1736 202.1116)" class="st24" width="31.5" height="0.2"/>
	
		<rect x="141.4" y="122.4" transform="matrix(0.4707 -0.8823 0.8823 0.4707 -27.2547 199.5181)" class="st24" width="22.6" height="0.2"/>
	
		<rect x="147" y="130" transform="matrix(0.9604 -0.2787 0.2787 0.9604 -30.0815 48.5944)" class="st24" width="17.7" height="0.2"/>
	
		<rect x="154.7" y="129.6" transform="matrix(0.7422 -0.6702 0.6702 0.7422 -54.4289 140.0319)" class="st24" width="0.2" height="22.3"/>
	<polygon class="st24" points="152.6,161.8 152.5,161.7 162.2,149 162.4,149.1 	"/>
	<polygon class="st24" points="163.8,176.2 162.2,149.1 162.4,149 164,176.2 	"/>
	
		<rect x="161.6" y="171.9" transform="matrix(0.5429 -0.8398 0.8398 0.5429 -68.2411 218.5397)" class="st24" width="10.1" height="0.2"/>
	<polygon class="st24" points="163.9,176.3 163.8,176.1 185.7,164.8 185.7,164.9 	"/>
	
		<rect x="186" y="164.8" transform="matrix(0.9995 -3.267184e-02 3.267184e-02 0.9995 -5.62 6.1739)" class="st24" width="0.2" height="20.5"/>
	<polygon class="st24" points="185.8,164.9 185.6,164.8 195.4,153.3 195.5,153.4 	"/>
	<polygon class="st24" points="195.4,153.4 183.3,146 183.4,145.9 195.5,153.2 	"/>
	<polygon class="st24" points="191.8,131.9 186.5,98 186.7,98 192,131.9 	"/>
	
		<rect x="190.8" y="129.7" transform="matrix(0.5492 -0.8357 0.8357 0.5492 -21.3437 220.041)" class="st24" width="5" height="0.2"/>
	<polygon class="st24" points="226.4,95.2 226.3,95.1 233.9,87.5 234,87.6 	"/>
</g>
<g>
	<rect x="-236.1" y="90.2" class="st25" width="921.5" height="66.6"/>
	<path d="M363.8,113.8c-3.3-4-7.3-6-12.1-6c-2.1,0-4.1,0.4-5.9,1.2c-1.8,0.8-3.3,1.8-4.6,3.1c-1.3,1.3-2.3,2.9-3.1,4.7
		c-0.7,1.8-1.1,3.8-1.1,5.9c0,2.2,0.4,4.2,1.1,6c0.7,1.8,1.8,3.4,3.1,4.8c1.3,1.3,2.9,2.4,4.6,3.2c1.8,0.8,3.7,1.2,5.8,1.2
		c4.5,0,8.6-1.9,12.2-5.8v16.7l-1.4,0.5c-2.2,0.8-4.2,1.3-6,1.7c-1.9,0.4-3.7,0.5-5.5,0.5c-3.7,0-7.3-0.7-10.8-2.1
		c-3.4-1.4-6.5-3.4-9.1-6s-4.7-5.6-6.3-9.1s-2.4-7.4-2.4-11.6c0-4.2,0.8-8,2.3-11.5c1.6-3.5,3.6-6.5,6.3-9s5.7-4.5,9.1-5.9
		c3.5-1.4,7.1-2.1,10.9-2.1c2.2,0,4.3,0.2,6.4,0.7c2.1,0.5,4.3,1.2,6.6,2.1L363.8,113.8L363.8,113.8z"/>
	<path d="M397.7,95.7V150h-14.1V95.7H397.7z"/>
	<path d="M419.9,150V95.7H434l26.1,33.2V95.7h14V150h-14L434,116.8V150H419.9z"/>
	<path d="M527,107.6h-16.8v9.1H526v12h-15.8v9.4H527v12h-30.9V95.7H527V107.6z M524.5,81.9l-13.8,9.5l-5.5-5.1l11.7-11.2L524.5,81.9
		z"/>
	<path d="M545.5,150l9.2-54.3h14l10.9,28.9l10.8-28.9h14l9.2,54.3h-14l-4.7-31.2L582.2,150h-5.6l-12.2-31.2l-4.7,31.2L545.5,150
		L545.5,150z"/>
	<path d="M666.7,140.5h-20.2l-3.2,9.4h-15L649,95.6h15.4l20.7,54.3h-15L666.7,140.5z M662.9,129.8l-6.3-18.1l-6.3,18.1H662.9z"/>
</g>
</svg>
